# xmcd CD database file
#
# Track frame offsets:
#	150
#	11680
#	24312
#	37167
#	53660
#	69695
#	82105
#	96345
#	114187
#	124987
#	138920
#	157995
#	171565
#	186762
#	208922
#	224920
#	247645
#	257267
#
# Disc length: 3649 seconds
#
# Revision: 1
# Processed by: cddbd v1.5.1PL0 Copyright (c) Steve Scherf et al.
# Submitted via: CDex 1.51
#
DISCID=020e3f12
DTITLE=オムニバス - JAZZ ever! TV&Movie Hits
DYEAR=1900
DGENRE=Jazz
TTITLE0=ナット・キング・コール/L-O-V-E
TTITLE1=ジョー・スタッフォード/煙が目にしみる
TTITLE2=アート・テイタム/BLUE SKIES
TTITLE3=小林 桂/East of the Sun
TTITLE4=グレン・グレイ/In the Mood
TTITLE5=サラ・ヴォーン/My Favorite Things
TTITLE6=ジャッキー・テラソン/バラ色の人生
TTITLE7=ホーギー・カーマイケル/我が心のジョージア
TTITLE8=クリス・コナー/バードランドの子守唄
TTITLE9=ザ・スリー・サウンズ/You 're My Sunshine
TTITLE10=アン・リチャーズ/I Got Rhythm
TTITLE11=チェット・ベイカー/Someone to Watch Over Me
TTITLE12=デクスター・ゴードン/SMILE
TTITLE13=寺井 尚子/HABANERA
TTITLE14=ナンシー・ウィルソン/Close to You
TTITLE15=ジミー・スミス/'S Wonderful
TTITLE16=トニー・ベネット/CHICAGO
TTITLE17=松永 貴志/Open Mind
EXTD=
EXTT0=
EXTT1=
EXTT2=
EXTT3=
EXTT4=
EXTT5=
EXTT6=
EXTT7=
EXTT8=
EXTT9=
EXTT10=
EXTT11=
EXTT12=
EXTT13=
EXTT14=
EXTT15=
EXTT16=
EXTT17=
PLAYORDER=
